<?xml version="1.0" encoding="utf-8"?>
<!-- Generator: Adobe Illustrator 24.2.1, SVG Export Plug-In . SVG Version: 6.00 Build 0)  -->
<svg  width="22px" height="26px" version="1.1" id="Layer_1" xmlns:serif="http://www.serif.com/"
	 xmlns="http://www.w3.org/2000/svg" xmlns:xlink="http://www.w3.org/1999/xlink" viewBox="0 0 909.8 1079.3"
	 style="enable-background:new 0 0 909.8 1079.3;" xml:space="preserve">
<style type="text/css">
	.st0{fill-rule:evenodd;clip-rule:evenodd;fill:#B0B0B0;}
	.st1{fill-rule:evenodd;clip-rule:evenodd;fill:#167DB3;}
</style>
<g id="themeshark-logo" transform="matrix(0.789814,0,0,0.789814,-436.132,-140.906)">
	<g id="gray" transform="matrix(1,0,0,1,552.196,178.404)">
		<path id="tail-bottom" class="st0" d="M284.6,769.7c0,0-140.8,145.8-123.5,417c0,0,119.7,139.4,314.1,170.4
			C475.1,1357.2,38,1150.2,284.6,769.7z"/>
		<path id="tail-mid" class="st0" d="M16.6,912.4c35.6-96.1,152.4-329.8,423-284.7c-328.9,181.5-288,548.7-288,548.7
			C61.7,1072.2,33.6,988.9,16.6,912.4z"/>
		<path id="body" class="st0" d="M11.9,899.3c31.5-116.1,163.5-386.6,440.3-435.3c153.6-27,273.7-7.7,367.2,35.2
			c218.1,99.9,291.4,327.4,310,389.1c2.1,7.2,3.7,12.2,4.6,14.9c-6.7,0.6-19.3,1.4-37.7,1.3c-76.4-0.3-234-17.5-366.7-139
			C547.5,598.9,183.8,475.8,11.9,899.3z M890.5,622.9c-28.7,0-51.9,23.3-51.9,51.9c0,28.7,23.3,51.9,51.9,51.9
			c28.7,0,51.9-23.3,51.9-51.9C942.4,646.2,919.1,622.9,890.5,622.9z"/>
	</g>
	<g id="blue" transform="matrix(1,0,0,1,552.196,178.404)">
		<path id="tail-fin" class="st1" d="M342.9,1246.2c0,0,258.6,190.1,378.5-110.5c0,0,25.6,41.8,19.2,110.1c0,0,139,31.3,261.2-66.6
			c0,0-186.8,220.5-492.2,183.1c0,0-41-11.4-103-59.6C386.3,1287.1,363.8,1266.8,342.9,1246.2z"/>
		<path id="back" class="st1" d="M536.5,442.5c-27.5,2-56.2,5.5-86.2,10.8C180.5,500.7,45.5,754.9,6,880.6c-4-27.1-6-54.9-6-83.1
			c0-317.9,258.1-576,576-576c317.9,0,576,258.1,576,576c0,22.3-1.3,44.4-3.8,66c-1.5,12.8-3.5,20-5.9,29.6c-0.7-2.3-1.6-5.1-2.4-8
			C1121,822.3,1046,591,823.9,489.3c-21.6-9.9-44.6-18.6-69-25.7c-3.6,41.5-33.6,205.2-280.1,330.5
			C474.8,794.1,603,573.5,536.5,442.5z"/>
		<path id="top-fin" class="st1" d="M579.4,210.3l1.8,0l1.3,0c1.5,0,3,0,4.5,0.1l1.3,0l1.8,0l0.8,0c6.7,0.2,13.5,0.5,20.2,0.9
			c1.3,0.1,2.6,0.2,4,0.3l1.3,0.1l1.7,0.1l1.7,0.1l0.7,0.1c6.7,0.5,13.4,1.1,20,1.9c0.6,0.1,1.3,0.1,1.9,0.2
			c50.9,5.9,99.8,18.4,145.8,36.8l1.6,0.6C756.6,189.3,645,15.4,427.3,0c0,0,88.1,113.5,31.7,222.2l0.9-0.2l0.4-0.1l0.4-0.1l0.4-0.1
			l0.4-0.1l0.5-0.1l0.4-0.1l0.4-0.1l0.4-0.1l0.5-0.1l0.4-0.1l0.4-0.1l0.4-0.1l0.5-0.1l0.5-0.1l0.4-0.1l0.4-0.1l0.5-0.1l0.5-0.1
			l0.4-0.1l0.4-0.1l0.5-0.1l0.5-0.1l0.4-0.1l0.4-0.1l0.5-0.1l0.5-0.1l0.4-0.1l0.4-0.1l0.5-0.1l0.5-0.1l0.4-0.1l0.4-0.1l0.5-0.1
			l0.5-0.1l0.4-0.1l0.4-0.1l0.5-0.1l0.5-0.1l0.4-0.1l0.4-0.1l0.5-0.1l0.5-0.1l0.4-0.1l0.4-0.1l0.5-0.1l0.5-0.1l0.3-0.1l0.4-0.1
			l0.6-0.1l0.5-0.1l0.3-0.1l0.4-0.1l0.6-0.1l0.5-0.1l0.3-0.1l0.4-0.1l0.6-0.1l0.5-0.1l0.3-0.1l0.4-0.1l0.6-0.1l0.5-0.1l0.3,0
			l0.4-0.1l0.6-0.1l0.5-0.1l0.3,0l0.3-0.1l0.6-0.1l0.5-0.1l0.3,0l0.3-0.1l0.6-0.1l0.5-0.1l0.3,0l0.3,0l0.6-0.1l0.6-0.1l0.3,0l0.3,0
			l0.6-0.1l0.6-0.1l0.3,0l0.3,0l0.6-0.1l0.6-0.1l0.3,0l0.3,0l0.6-0.1l0.6-0.1l0.3,0l0.3,0l0.6-0.1l0.6-0.1l0.3,0l0.3,0l0.7-0.1
			l0.6-0.1l0.3,0l0.3,0l0.7-0.1l0.6-0.1l0.3,0l0.3,0l0.7-0.1l0.6-0.1l0.2,0l0.3,0l0.7-0.1l0.6-0.1l0.2,0l0.3,0l0.7-0.1l0.6-0.1
			l0.2,0l0.3,0l0.7-0.1l0.6-0.1l0.2,0l0.3,0l0.7-0.1l0.6-0.1l0.2,0l0.2,0l0.7-0.1l0.6-0.1l0.2,0l0.2,0l0.7-0.1l0.7-0.1l0.2,0l0.2,0
			l0.7-0.1l0.7-0.1l0.2,0l0.2,0l0.7-0.1l0.7-0.1l0.2,0l0.2,0l0.7-0.1l0.7-0.1l0.2,0l0.2,0l0.7-0.1l0.7-0.1l0.2,0l0.2,0l0.8-0.1
			l0.7-0.1l0.2,0l0.2,0l0.8-0.1l0.7-0.1l0.2,0l0.2,0l0.8-0.1l0.7-0.1l0.2,0l0.2,0l0.8-0.1l0.7-0.1l0.2,0l0.2,0l0.8-0.1l0.7-0.1
			l0.2,0l0.2,0l0.8-0.1l0.7-0.1l0.1,0l0.2,0l0.8-0.1l0.7-0.1l0.1,0l0.1,0l0.8-0.1l0.7,0l0.1,0l0.1,0l0.8-0.1l0.8,0l0.1,0l0.1,0
			l0.8,0l0.8,0l0.1,0l0.1,0l0.8,0l0.8,0l0.1,0l0.1,0l0.8,0l0.8,0l0.1,0l0.1,0l0.9,0l0.8,0l0.2,0l0.9,0l0.8,0l0.2,0l0.9,0l0.8,0
			l0.2,0l0.9,0l0.8,0l0.2,0l0.9,0l0.8,0l0.1,0l0.9,0l0.8,0h0.1l0.9,0l0.8,0h0.1l0.9,0l0.8,0l0.1,0l1,0l0.8,0l0.1,0l1,0l0.8,0h0.1
			l1,0l0.8,0h0.1l1,0l0.8,0h0l1.1,0l0.7,0h0l1.8,0h0c0.6,0,1.2,0,1.9,0C577.1,210.3,578.2,210.3,579.4,210.3z"/>
	</g>
</g>
</svg>
